<svg width="16" height="16" viewBox="0 0 16 16" fill="none" xmlns="http://www.w3.org/2000/svg">
<path d="M5.293 14.364C5.10553 14.1764 5.00021 13.9221 5.00021 13.657C5.00021 13.3918 5.10553 13.1375 5.293 12.95L10.243 7.99995L5.293 3.04995C5.11084 2.86135 5.01005 2.60875 5.01233 2.34655C5.0146 2.08435 5.11977 1.83354 5.30518 1.64813C5.49059 1.46273 5.7414 1.35756 6.0036 1.35528C6.2658 1.353 6.5184 1.4538 6.707 1.63595L12.364 7.29295C12.5515 7.48048 12.6568 7.73479 12.6568 7.99995C12.6568 8.26512 12.5515 8.51942 12.364 8.70695L6.707 14.364C6.51947 14.5514 6.26516 14.6567 6 14.6567C5.73484 14.6567 5.48053 14.5514 5.293 14.364Z" fill="#48738D" fill-opacity="0.8"/>
</svg>
