<svg width="23" height="23" viewBox="0 0 23 23" fill="none" xmlns="http://www.w3.org/2000/svg">
<path d="M2.35179 7.60862C2.62136 7.33914 2.98693 7.18774 3.3681 7.18774C3.74927 7.18774 4.11484 7.33914 4.38441 7.60862L11.5 14.7242L18.6157 7.60862C18.8868 7.34677 19.2499 7.20188 19.6268 7.20516C20.0037 7.20843 20.3643 7.35961 20.6308 7.62614C20.8973 7.89266 21.0485 8.2532 21.0518 8.63011C21.055 9.00702 20.9101 9.37013 20.6483 9.64125L12.5163 17.7732C12.2468 18.0427 11.8812 18.1941 11.5 18.1941C11.1189 18.1941 10.7533 18.0427 10.4837 17.7732L2.35179 9.64125C2.0823 9.37168 1.93091 9.00611 1.93091 8.62494C1.93091 8.24376 2.0823 7.8782 2.35179 7.60862Z" fill="#E8FCFF"/>
</svg>
